<mxfile host="app.diagrams.net" agent="Mozilla/5.0 (Macintosh; Intel Mac OS X 10_15_7) AppleWebKit/537.36 (KHTML, like Gecko) Chrome/133.0.0.0 Safari/537.36" version="26.0.14">
  <diagram name="Page-1" id="x46fSb40kQ-E2BliE_0J">
    <mxGraphModel dx="5818" dy="4056" grid="1" gridSize="10" guides="1" tooltips="1" connect="1" arrows="1" fold="1" page="1" pageScale="1" pageWidth="850" pageHeight="1100" math="0" shadow="0">
      <root>
        <mxCell id="0" />
        <mxCell id="1" parent="0" />
        <mxCell id="VzICxWeTZ-MD_ZVvcSBD-43" value="" style="rounded=0;whiteSpace=wrap;html=1;strokeColor=#FF0000;strokeWidth=15;" parent="1" vertex="1">
          <mxGeometry x="-720" y="-640" width="4400" height="2320" as="geometry" />
        </mxCell>
        <mxCell id="VzICxWeTZ-MD_ZVvcSBD-7" value="" style="rounded=0;whiteSpace=wrap;html=1;fillColor=#fff2cc;strokeColor=#d6b656;" parent="1" vertex="1">
          <mxGeometry x="210" y="-160" width="360" height="840" as="geometry" />
        </mxCell>
        <mxCell id="VzICxWeTZ-MD_ZVvcSBD-9" style="edgeStyle=orthogonalEdgeStyle;rounded=0;orthogonalLoop=1;jettySize=auto;html=1;exitX=1;exitY=0.5;exitDx=0;exitDy=0;exitPerimeter=0;" parent="1" source="VzICxWeTZ-MD_ZVvcSBD-1" target="VzICxWeTZ-MD_ZVvcSBD-4" edge="1">
          <mxGeometry relative="1" as="geometry" />
        </mxCell>
        <mxCell id="VzICxWeTZ-MD_ZVvcSBD-1" value="" style="sketch=0;points=[[0,0,0],[0.25,0,0],[0.5,0,0],[0.75,0,0],[1,0,0],[0,1,0],[0.25,1,0],[0.5,1,0],[0.75,1,0],[1,1,0],[0,0.25,0],[0,0.5,0],[0,0.75,0],[1,0.25,0],[1,0.5,0],[1,0.75,0]];outlineConnect=0;fontColor=#232F3E;fillColor=#7AA116;strokeColor=#ffffff;dashed=0;verticalLabelPosition=bottom;verticalAlign=top;align=center;html=1;fontSize=12;fontStyle=0;aspect=fixed;shape=mxgraph.aws4.resourceIcon;resIcon=mxgraph.aws4.s3;" parent="1" vertex="1">
          <mxGeometry x="-470" y="90" width="340" height="340" as="geometry" />
        </mxCell>
        <mxCell id="VzICxWeTZ-MD_ZVvcSBD-4" value="" style="sketch=0;points=[[0,0,0],[0.25,0,0],[0.5,0,0],[0.75,0,0],[1,0,0],[0,1,0],[0.25,1,0],[0.5,1,0],[0.75,1,0],[1,1,0],[0,0.25,0],[0,0.5,0],[0,0.75,0],[1,0.25,0],[1,0.5,0],[1,0.75,0]];outlineConnect=0;fontColor=#232F3E;fillColor=#ED7100;strokeColor=#ffffff;dashed=0;verticalLabelPosition=bottom;verticalAlign=top;align=center;html=1;fontSize=12;fontStyle=0;aspect=fixed;shape=mxgraph.aws4.resourceIcon;resIcon=mxgraph.aws4.ec2;" parent="1" vertex="1">
          <mxGeometry x="330" y="200" width="120" height="120" as="geometry" />
        </mxCell>
        <mxCell id="VzICxWeTZ-MD_ZVvcSBD-5" value="" style="sketch=0;points=[[0,0,0],[0.25,0,0],[0.5,0,0],[0.75,0,0],[1,0,0],[0,1,0],[0.25,1,0],[0.5,1,0],[0.75,1,0],[1,1,0],[0,0.25,0],[0,0.5,0],[0,0.75,0],[1,0.25,0],[1,0.5,0],[1,0.75,0]];outlineConnect=0;fontColor=#232F3E;fillColor=#ED7100;strokeColor=#ffffff;dashed=0;verticalLabelPosition=bottom;verticalAlign=top;align=center;html=1;fontSize=12;fontStyle=0;aspect=fixed;shape=mxgraph.aws4.resourceIcon;resIcon=mxgraph.aws4.ec2;" parent="1" vertex="1">
          <mxGeometry x="330" y="-40" width="120" height="120" as="geometry" />
        </mxCell>
        <mxCell id="VzICxWeTZ-MD_ZVvcSBD-6" value="" style="sketch=0;points=[[0,0,0],[0.25,0,0],[0.5,0,0],[0.75,0,0],[1,0,0],[0,1,0],[0.25,1,0],[0.5,1,0],[0.75,1,0],[1,1,0],[0,0.25,0],[0,0.5,0],[0,0.75,0],[1,0.25,0],[1,0.5,0],[1,0.75,0]];outlineConnect=0;fontColor=#232F3E;fillColor=#ED7100;strokeColor=#ffffff;dashed=0;verticalLabelPosition=bottom;verticalAlign=top;align=center;html=1;fontSize=12;fontStyle=0;aspect=fixed;shape=mxgraph.aws4.resourceIcon;resIcon=mxgraph.aws4.ec2;" parent="1" vertex="1">
          <mxGeometry x="330" y="440" width="120" height="120" as="geometry" />
        </mxCell>
        <mxCell id="VzICxWeTZ-MD_ZVvcSBD-8" style="edgeStyle=orthogonalEdgeStyle;rounded=0;orthogonalLoop=1;jettySize=auto;html=1;exitX=1;exitY=0.5;exitDx=0;exitDy=0;exitPerimeter=0;entryX=0;entryY=0.5;entryDx=0;entryDy=0;entryPerimeter=0;" parent="1" source="VzICxWeTZ-MD_ZVvcSBD-1" target="VzICxWeTZ-MD_ZVvcSBD-5" edge="1">
          <mxGeometry relative="1" as="geometry" />
        </mxCell>
        <mxCell id="VzICxWeTZ-MD_ZVvcSBD-10" style="edgeStyle=orthogonalEdgeStyle;rounded=0;orthogonalLoop=1;jettySize=auto;html=1;exitX=1;exitY=0.5;exitDx=0;exitDy=0;exitPerimeter=0;entryX=0;entryY=0.5;entryDx=0;entryDy=0;entryPerimeter=0;" parent="1" source="VzICxWeTZ-MD_ZVvcSBD-1" target="VzICxWeTZ-MD_ZVvcSBD-6" edge="1">
          <mxGeometry relative="1" as="geometry" />
        </mxCell>
        <mxCell id="VzICxWeTZ-MD_ZVvcSBD-11" value="" style="shape=image;verticalLabelPosition=bottom;labelBackgroundColor=default;verticalAlign=top;aspect=fixed;imageAspect=0;image=https://upload.wikimedia.org/wikipedia/commons/thumb/f/f3/Apache_Spark_logo.svg/1200px-Apache_Spark_logo.svg.png;" parent="1" vertex="1">
          <mxGeometry x="210" y="-380" width="360" height="187.2" as="geometry" />
        </mxCell>
        <mxCell id="VzICxWeTZ-MD_ZVvcSBD-28" style="edgeStyle=orthogonalEdgeStyle;rounded=0;orthogonalLoop=1;jettySize=auto;html=1;exitX=1;exitY=0.5;exitDx=0;exitDy=0;exitPerimeter=0;" parent="1" source="VzICxWeTZ-MD_ZVvcSBD-13" target="VzICxWeTZ-MD_ZVvcSBD-27" edge="1">
          <mxGeometry relative="1" as="geometry" />
        </mxCell>
        <mxCell id="VzICxWeTZ-MD_ZVvcSBD-13" value="&lt;font style=&quot;font-size: 30px;&quot;&gt;AGGREGATION RESULT&lt;/font&gt;" style="shape=cylinder3;whiteSpace=wrap;html=1;boundedLbl=1;backgroundOutline=1;size=15;fillColor=#e1d5e7;strokeColor=#9673a6;" parent="1" vertex="1">
          <mxGeometry x="920" y="80" width="280" height="360" as="geometry" />
        </mxCell>
        <mxCell id="VzICxWeTZ-MD_ZVvcSBD-14" style="edgeStyle=orthogonalEdgeStyle;rounded=0;orthogonalLoop=1;jettySize=auto;html=1;exitX=1;exitY=0.5;exitDx=0;exitDy=0;exitPerimeter=0;entryX=0;entryY=0.5;entryDx=0;entryDy=0;entryPerimeter=0;" parent="1" source="VzICxWeTZ-MD_ZVvcSBD-5" target="VzICxWeTZ-MD_ZVvcSBD-13" edge="1">
          <mxGeometry relative="1" as="geometry" />
        </mxCell>
        <mxCell id="VzICxWeTZ-MD_ZVvcSBD-15" style="edgeStyle=orthogonalEdgeStyle;rounded=0;orthogonalLoop=1;jettySize=auto;html=1;exitX=1;exitY=0.5;exitDx=0;exitDy=0;exitPerimeter=0;entryX=0;entryY=0.5;entryDx=0;entryDy=0;entryPerimeter=0;" parent="1" source="VzICxWeTZ-MD_ZVvcSBD-4" target="VzICxWeTZ-MD_ZVvcSBD-13" edge="1">
          <mxGeometry relative="1" as="geometry" />
        </mxCell>
        <mxCell id="VzICxWeTZ-MD_ZVvcSBD-16" style="edgeStyle=orthogonalEdgeStyle;rounded=0;orthogonalLoop=1;jettySize=auto;html=1;exitX=1;exitY=0.5;exitDx=0;exitDy=0;exitPerimeter=0;entryX=0;entryY=0.5;entryDx=0;entryDy=0;entryPerimeter=0;" parent="1" source="VzICxWeTZ-MD_ZVvcSBD-6" target="VzICxWeTZ-MD_ZVvcSBD-13" edge="1">
          <mxGeometry relative="1" as="geometry" />
        </mxCell>
        <mxCell id="VzICxWeTZ-MD_ZVvcSBD-29" style="edgeStyle=orthogonalEdgeStyle;rounded=0;orthogonalLoop=1;jettySize=auto;html=1;exitX=1;exitY=0.5;exitDx=0;exitDy=0;exitPerimeter=0;entryX=0;entryY=0.5;entryDx=0;entryDy=0;" parent="1" source="VzICxWeTZ-MD_ZVvcSBD-21" target="VzICxWeTZ-MD_ZVvcSBD-27" edge="1">
          <mxGeometry relative="1" as="geometry" />
        </mxCell>
        <mxCell id="VzICxWeTZ-MD_ZVvcSBD-21" value="&lt;font style=&quot;font-size: 30px;&quot;&gt;USER INFORMATION&lt;/font&gt;" style="shape=cylinder3;whiteSpace=wrap;html=1;boundedLbl=1;backgroundOutline=1;size=15;fillColor=#dae8fc;strokeColor=#6c8ebf;" parent="1" vertex="1">
          <mxGeometry x="920" y="640" width="280" height="360" as="geometry" />
        </mxCell>
        <mxCell id="VzICxWeTZ-MD_ZVvcSBD-22" value="" style="shape=image;verticalLabelPosition=bottom;labelBackgroundColor=default;verticalAlign=top;aspect=fixed;imageAspect=0;image=https://upload.wikimedia.org/wikipedia/commons/thumb/b/bb/Apache_Hive_logo.svg/1200px-Apache_Hive_logo.svg.png;" parent="1" vertex="1">
          <mxGeometry x="955.56" y="-188" width="208.89" height="188" as="geometry" />
        </mxCell>
        <mxCell id="VzICxWeTZ-MD_ZVvcSBD-23" value="Amazon RDS" style="sketch=0;outlineConnect=0;fontColor=#232F3E;gradientColor=none;strokeColor=#ffffff;fillColor=#232F3E;dashed=0;verticalLabelPosition=middle;verticalAlign=bottom;align=center;html=1;whiteSpace=wrap;fontSize=10;fontStyle=1;spacing=3;shape=mxgraph.aws4.productIcon;prIcon=mxgraph.aws4.rds;" parent="1" vertex="1">
          <mxGeometry x="968" y="1080" width="184" height="230" as="geometry" />
        </mxCell>
        <mxCell id="VzICxWeTZ-MD_ZVvcSBD-36" style="edgeStyle=orthogonalEdgeStyle;rounded=0;orthogonalLoop=1;jettySize=auto;html=1;exitX=1;exitY=0.5;exitDx=0;exitDy=0;entryX=0;entryY=0.5;entryDx=0;entryDy=0;" parent="1" source="VzICxWeTZ-MD_ZVvcSBD-27" target="VzICxWeTZ-MD_ZVvcSBD-32" edge="1">
          <mxGeometry relative="1" as="geometry" />
        </mxCell>
        <mxCell id="VzICxWeTZ-MD_ZVvcSBD-27" value="" style="shape=image;verticalLabelPosition=bottom;labelBackgroundColor=default;verticalAlign=top;aspect=fixed;imageAspect=0;image=https://cdn-icons-png.flaticon.com/512/5581/5581393.png;" parent="1" vertex="1">
          <mxGeometry x="1840" y="362" width="376" height="376" as="geometry" />
        </mxCell>
        <mxCell id="VzICxWeTZ-MD_ZVvcSBD-30" value="" style="shape=image;verticalLabelPosition=bottom;labelBackgroundColor=default;verticalAlign=top;aspect=fixed;imageAspect=0;image=https://prestodb.github.io/img/logo-presto-color.svg;" parent="1" vertex="1">
          <mxGeometry x="1570" y="460" width="237.41" height="75" as="geometry" />
        </mxCell>
        <mxCell id="VzICxWeTZ-MD_ZVvcSBD-37" style="edgeStyle=orthogonalEdgeStyle;rounded=0;orthogonalLoop=1;jettySize=auto;html=1;exitX=1;exitY=0.5;exitDx=0;exitDy=0;" parent="1" source="VzICxWeTZ-MD_ZVvcSBD-32" target="VzICxWeTZ-MD_ZVvcSBD-34" edge="1">
          <mxGeometry relative="1" as="geometry" />
        </mxCell>
        <mxCell id="VzICxWeTZ-MD_ZVvcSBD-32" value="" style="shape=image;verticalLabelPosition=bottom;labelBackgroundColor=default;verticalAlign=top;aspect=fixed;imageAspect=0;image=https://cdn-icons-png.flaticon.com/512/8748/8748009.png;" parent="1" vertex="1">
          <mxGeometry x="2400" y="404" width="292" height="292" as="geometry" />
        </mxCell>
        <mxCell id="VzICxWeTZ-MD_ZVvcSBD-34" value="" style="shape=image;verticalLabelPosition=bottom;labelBackgroundColor=default;verticalAlign=top;aspect=fixed;imageAspect=0;image=https://cdn-icons-png.flaticon.com/512/3474/3474885.png;" parent="1" vertex="1">
          <mxGeometry x="2888" y="294" width="512" height="512" as="geometry" />
        </mxCell>
        <mxCell id="VzICxWeTZ-MD_ZVvcSBD-38" value="&lt;font style=&quot;font-size: 50px;&quot;&gt;Data Lake&lt;/font&gt;" style="rounded=0;whiteSpace=wrap;html=1;fillColor=#ffe6cc;strokeColor=#d79b00;" parent="1" vertex="1">
          <mxGeometry x="-580" y="1440" width="560" height="121.08" as="geometry" />
        </mxCell>
        <mxCell id="VzICxWeTZ-MD_ZVvcSBD-39" value="&lt;font style=&quot;font-size: 50px;&quot;&gt;Distributed Preprocessing&lt;/font&gt;" style="rounded=0;whiteSpace=wrap;html=1;fillColor=#ffe6cc;strokeColor=#d79b00;" parent="1" vertex="1">
          <mxGeometry x="110" y="1440" width="560" height="121.08" as="geometry" />
        </mxCell>
        <mxCell id="VzICxWeTZ-MD_ZVvcSBD-40" value="&lt;font style=&quot;font-size: 50px;&quot;&gt;Federated Query System&lt;/font&gt;" style="rounded=0;whiteSpace=wrap;html=1;fillColor=#ffe6cc;strokeColor=#d79b00;" parent="1" vertex="1">
          <mxGeometry x="780" y="1440" width="560" height="121.08" as="geometry" />
        </mxCell>
        <mxCell id="VzICxWeTZ-MD_ZVvcSBD-41" value="&lt;font style=&quot;font-size: 50px;&quot;&gt;Report Dashboard&lt;/font&gt;" style="rounded=0;whiteSpace=wrap;html=1;fillColor=#ffe6cc;strokeColor=#d79b00;" parent="1" vertex="1">
          <mxGeometry x="1748.0100000000002" y="1440" width="560" height="121.08" as="geometry" />
        </mxCell>
        <mxCell id="VzICxWeTZ-MD_ZVvcSBD-42" value="&lt;font style=&quot;font-size: 50px;&quot;&gt;Send to Stakeholders&lt;/font&gt;" style="rounded=0;whiteSpace=wrap;html=1;fillColor=#ffe6cc;strokeColor=#d79b00;" parent="1" vertex="1">
          <mxGeometry x="2864" y="1440" width="560" height="121.08" as="geometry" />
        </mxCell>
        <mxCell id="VzICxWeTZ-MD_ZVvcSBD-44" value="" style="shape=image;verticalLabelPosition=bottom;labelBackgroundColor=default;verticalAlign=top;aspect=fixed;imageAspect=0;image=https://upload.wikimedia.org/wikipedia/commons/d/de/AirflowLogo.png;" parent="1" vertex="1">
          <mxGeometry x="2440" y="-600" width="1200" height="464" as="geometry" />
        </mxCell>
        <mxCell id="VzICxWeTZ-MD_ZVvcSBD-45" value="&lt;font style=&quot;font-size: 25px;&quot;&gt;AWS RDS&lt;/font&gt;" style="rounded=0;whiteSpace=wrap;html=1;" parent="1" vertex="1">
          <mxGeometry x="965" y="1290" width="190" height="60" as="geometry" />
        </mxCell>
      </root>
    </mxGraphModel>
  </diagram>
</mxfile>
